<svg xmlns="http://www.w3.org/2000/svg" viewBox="0 0 200 200" width="200" height="200">
  <!-- Octopus Body -->
  <circle cx="100" cy="70" r="50" fill="pink" stroke="black" stroke-width="3" />
  
  <!-- Tentacles -->
  <path d="M50,130 Q60,160 40,180 Q50,160 30,170" fill="pink" stroke="black" stroke-width="3"/>
  <path d="M70,130 Q80,160 60,180 Q70,160 50,170" fill="pink" stroke="black" stroke-width="3"/>
  <path d="M90,130 Q100,160 80,180 Q90,160 70,170" fill="pink" stroke="black" stroke-width="3"/>
  <path d="M110,130 Q120,160 100,180 Q110,160 90,170" fill="pink" stroke="black" stroke-width="3"/>
  <path d="M130,130 Q140,160 120,180 Q130,160 110,170" fill="pink" stroke="black" stroke-width="3"/>
  <path d="M150,130 Q160,160 140,180 Q150,160 130,170" fill="pink" stroke="black" stroke-width="3"/>
  <path d="M170,130 Q180,160 160,180 Q170,160 150,170" fill="pink" stroke="black" stroke-width="3"/>
  <path d="M190,130 Q200,160 180,180 Q190,160 170,170" fill="pink" stroke="black" stroke-width="3"/>

  <!-- Eyes -->
  <circle cx="80" cy="60" r="10" fill="white" stroke="black" stroke-width="3"/>
  <circle cx="120" cy="60" r="10" fill="white" stroke="black" stroke-width="3"/>
  <circle cx="80" cy="60" r="5" fill="black"/>
  <circle cx="120" cy="60" r="5" fill="black"/>
</svg>